<?xml version="1.0" encoding="UTF-8"?>
<svg width="48" height="48" viewBox="0 0 48 48" fill="none" xmlns="http://www.w3.org/2000/svg">
  <!-- Purple gradient background -->
  <rect width="48" height="48" rx="8" fill="url(#paint0_linear)" />
  
  <!-- ADA text -->
  <path d="M12 34L18 14H22L28 34H24L23 30H17L16 34H12ZM18 26H22L20 18L18 26Z" fill="white" />
  <path d="M30 34V14H34V30H42V34H30Z" fill="white" />
  <path d="M12 36V38H36V36H12Z" fill="white" />
  
  <!-- Mortarboard/graduation cap -->
  <path d="M24 8L36 14L24 20L12 14L24 8Z" fill="white"/>
  <path d="M30 17V25C30 25 27 28 24 28C21 28 18 25 18 25V17L24 20L30 17Z" fill="white"/>
  <path d="M32 17V25L33 26V18L32 17Z" fill="white"/>
  
  <!-- Define gradient -->
  <defs>
    <linearGradient id="paint0_linear" x1="0" y1="0" x2="48" y2="48" gradientUnits="userSpaceOnUse">
      <stop stop-color="#6930C3" />
      <stop offset="1" stop-color="#4A1D96" />
    </linearGradient>
  </defs>
</svg>