<svg xmlns="http://www.w3.org/2000/svg" version="1.1" viewBox="0 0 540 360">
  <style>
    .ada-text { fill: #c85a77; }
    .university-text { fill: #487890; }
    .bars { fill: #487890; }
  </style>
  <g>
    <!-- ADA Text -->
    <path class="ada-text" d="M95 310 L145 190 L195 310 L95 310 Z M120 280 L170 280 L145 230 L120 280 Z" />
    <path class="ada-text" d="M215 190 Q260 190 285 210 Q310 230 310 270 Q310 310 285 330 Q260 350 215 350 L215 310 Q235 310 245 300 Q255 290 255 270 Q255 250 245 240 Q235 230 215 230 L215 190 Z" />
    <path class="ada-text" d="M345 310 L395 190 L445 310 L345 310 Z M370 280 L420 280 L395 230 L370 280 Z" />
    
    <!-- University Text Curved -->
    <path class="university-text" d="M90 160 A180 180 0 0 1 450 160" stroke-width="0" fill="none" id="university-curve" />
    <text font-family="serif" font-size="24" font-weight="bold">
      <textPath href="#university-curve" startOffset="50%" text-anchor="middle">UNIVERSITY</textPath>
    </text>
    
    <!-- Horizontal Bars -->
    <rect class="bars" x="48" y="325" width="444" height="10" />
    <rect class="bars" x="96" y="345" width="348" height="10" />
    <rect class="bars" x="144" y="365" width="252" height="10" />
  </g>
</svg>